<svg xmlns="http://www.w3.org/2000/svg" width="800" height="500" viewBox="0 0 800 500" fill="none" font-family="Georgia, 'Times New Roman', serif">
  <defs>
    <linearGradient id="hero" x1="0" y1="0" x2="1" y2="1">
      <stop offset="0" stop-color="#9DB5AA"/>
      <stop offset="1" stop-color="#2F5D4F"/>
    </linearGradient>
  </defs>
  <rect width="800" height="500" fill="#F6F4EF"/>

  <!-- header -->
  <rect x="0" y="0" width="800" height="58" fill="#FFFFFF"/>
  <rect x="0" y="58" width="800" height="1" fill="#E6E1D8"/>
  <rect x="40" y="21" width="16" height="16" rx="4" fill="#2F5D4F"/>
  <text x="64" y="34" font-size="17" font-weight="700" fill="#181715">Aria</text>
  <text x="468" y="33" font-size="11.5" fill="#6B655C">Home</text>
  <text x="520" y="33" font-size="11.5" fill="#6B655C">Rooms</text>
  <text x="578" y="33" font-size="11.5" fill="#6B655C">About</text>
  <text x="630" y="33" font-size="11.5" fill="#6B655C">Contact</text>
  <rect x="694" y="16" width="72" height="27" rx="13.5" fill="#2F5D4F"/>
  <text x="730" y="33.5" font-size="11" fill="#FFFFFF" text-anchor="middle">Book now</text>

  <!-- hero text -->
  <text x="40" y="150" font-size="35" font-weight="700" fill="#181715">Stay somewhere</text>
  <text x="40" y="191" font-size="35" font-weight="700" fill="#181715">worth remembering.</text>
  <rect x="40" y="214" width="310" height="9" rx="4.5" fill="#E6E1D8"/>
  <rect x="40" y="233" width="250" height="9" rx="4.5" fill="#E6E1D8"/>
  <rect x="40" y="264" width="156" height="36" rx="18" fill="#2F5D4F"/>
  <text x="118" y="287" font-size="12.5" fill="#FFFFFF" text-anchor="middle">Check availability</text>

  <!-- hero image -->
  <rect x="430" y="88" width="330" height="214" rx="16" fill="url(#hero)"/>
  <circle cx="694" cy="138" r="24" fill="#F6F4EF" opacity="0.4"/>
  <path d="M430 262 Q520 196 602 250 T760 238 V302 H430 Z" fill="#181715" opacity="0.16"/>

  <!-- room cards -->
  <g>
    <rect x="40" y="344" width="226" height="128" rx="12" fill="#FFFFFF" stroke="#E6E1D8"/>
    <rect x="52" y="356" width="202" height="66" rx="8" fill="#C7D4CD"/>
    <rect x="52" y="434" width="120" height="9" rx="4.5" fill="#181715"/>
    <rect x="52" y="450" width="78" height="7" rx="3.5" fill="#6B655C"/>
  </g>
  <g>
    <rect x="287" y="344" width="226" height="128" rx="12" fill="#FFFFFF" stroke="#E6E1D8"/>
    <rect x="299" y="356" width="202" height="66" rx="8" fill="#C7D4CD"/>
    <rect x="299" y="434" width="120" height="9" rx="4.5" fill="#181715"/>
    <rect x="299" y="450" width="78" height="7" rx="3.5" fill="#6B655C"/>
  </g>
  <g>
    <rect x="534" y="344" width="226" height="128" rx="12" fill="#FFFFFF" stroke="#E6E1D8"/>
    <rect x="546" y="356" width="202" height="66" rx="8" fill="#C7D4CD"/>
    <rect x="546" y="434" width="120" height="9" rx="4.5" fill="#181715"/>
    <rect x="546" y="450" width="78" height="7" rx="3.5" fill="#6B655C"/>
  </g>
</svg>
