<svg xmlns="http://www.w3.org/2000/svg" width="800" height="500" viewBox="0 0 800 500" fill="none" font-family="Georgia, 'Times New Roman', serif">
  <defs>
    <linearGradient id="hero" x1="0" y1="0" x2="1" y2="1">
      <stop offset="0" stop-color="#E8C9B5"/>
      <stop offset="1" stop-color="#C2522E"/>
    </linearGradient>
  </defs>
  <rect width="800" height="500" fill="#FCF6F1"/>

  <!-- header -->
  <rect x="0" y="0" width="800" height="58" fill="#FFFFFF"/>
  <rect x="0" y="58" width="800" height="1" fill="#EEDFD4"/>
  <rect x="40" y="21" width="16" height="16" rx="4" fill="#C2522E"/>
  <text x="64" y="34" font-size="17" font-weight="700" fill="#34201A">Aria</text>
  <text x="468" y="33" font-size="11.5" fill="#8A6F63">Home</text>
  <text x="520" y="33" font-size="11.5" fill="#8A6F63">Rooms</text>
  <text x="578" y="33" font-size="11.5" fill="#8A6F63">About</text>
  <text x="630" y="33" font-size="11.5" fill="#8A6F63">Contact</text>
  <rect x="694" y="16" width="72" height="27" rx="13.5" fill="#C2522E"/>
  <text x="730" y="33.5" font-size="11" fill="#FFFFFF" text-anchor="middle">Book now</text>

  <!-- hero text -->
  <text x="40" y="150" font-size="35" font-weight="700" fill="#34201A">Stay somewhere</text>
  <text x="40" y="191" font-size="35" font-weight="700" fill="#34201A">worth remembering.</text>
  <rect x="40" y="214" width="310" height="9" rx="4.5" fill="#EEDFD4"/>
  <rect x="40" y="233" width="250" height="9" rx="4.5" fill="#EEDFD4"/>
  <rect x="40" y="264" width="156" height="36" rx="18" fill="#C2522E"/>
  <text x="118" y="287" font-size="12.5" fill="#FFFFFF" text-anchor="middle">Check availability</text>

  <!-- hero image -->
  <rect x="430" y="88" width="330" height="214" rx="16" fill="url(#hero)"/>
  <circle cx="694" cy="138" r="24" fill="#FCF6F1" opacity="0.45"/>
  <path d="M430 262 Q520 196 602 250 T760 238 V302 H430 Z" fill="#34201A" opacity="0.16"/>

  <!-- room cards -->
  <g>
    <rect x="40" y="344" width="226" height="128" rx="12" fill="#FFFFFF" stroke="#EEDFD4"/>
    <rect x="52" y="356" width="202" height="66" rx="8" fill="#E8C9B5"/>
    <rect x="52" y="434" width="120" height="9" rx="4.5" fill="#34201A"/>
    <rect x="52" y="450" width="78" height="7" rx="3.5" fill="#8A6F63"/>
  </g>
  <g>
    <rect x="287" y="344" width="226" height="128" rx="12" fill="#FFFFFF" stroke="#EEDFD4"/>
    <rect x="299" y="356" width="202" height="66" rx="8" fill="#E8C9B5"/>
    <rect x="299" y="434" width="120" height="9" rx="4.5" fill="#34201A"/>
    <rect x="299" y="450" width="78" height="7" rx="3.5" fill="#8A6F63"/>
  </g>
  <g>
    <rect x="534" y="344" width="226" height="128" rx="12" fill="#FFFFFF" stroke="#EEDFD4"/>
    <rect x="546" y="356" width="202" height="66" rx="8" fill="#E8C9B5"/>
    <rect x="546" y="434" width="120" height="9" rx="4.5" fill="#34201A"/>
    <rect x="546" y="450" width="78" height="7" rx="3.5" fill="#8A6F63"/>
  </g>
</svg>
